<svg width="457" height="105" viewBox="0 0 457 105" fill="none" xmlns="http://www.w3.org/2000/svg">
<path d="M227.372 49.74C226.582 57.08 217.882 57.74 216.082 49.34C214.752 43.17 204.082 1.72998 204.082 1.72998H191.082C191.082 1.72998 180.442 43.17 179.082 49.34C177.282 57.71 168.582 57.08 167.782 49.74C165.862 32 163.342 4.46999 163.172 1.73999H149.172L153.782 50.88C155.202 61.68 162.422 70.14 173.052 70.14C186.272 70.14 190.552 57.31 191.952 53.14L192.082 52.7L197.572 31.7L203.062 52.7L203.192 53.14C204.592 57.35 208.872 70.14 222.092 70.14C232.722 70.14 239.932 61.68 241.352 50.88L245.992 1.73999H231.992C231.822 4.46999 229.302 32 227.372 49.74Z" fill="url(#paint0_linear_1016_50713)"/>
<path d="M35.5414 1.74023H0.441406V15.7402H35.5114C47.1214 15.7402 56.4414 23.7402 56.4414 35.2802C56.4414 40.8498 54.2289 46.1912 50.2906 50.1295C46.3524 54.0677 41.011 56.2802 35.4414 56.2802C30.2328 56.284 25.2087 54.352 21.3446 50.8594C17.4805 47.3667 15.0523 42.5627 14.5314 37.3802H0.441406V86.1602H14.4414V63.2202C20.4818 67.8076 27.8565 70.2939 35.4414 70.3002C44.7183 70.2817 53.6099 66.5883 60.1697 60.0285C66.7295 53.4688 70.4229 44.5771 70.4414 35.3002C70.5014 15.9602 54.8614 1.74023 35.5414 1.74023Z" fill="url(#paint1_linear_1016_50713)"/>
<path d="M110.441 0.0600586C101.165 0.0811887 92.2752 3.77546 85.716 10.3347C79.1568 16.8939 75.4625 25.784 75.4414 35.0601C75.4599 44.337 79.1533 53.2286 85.7131 59.7884C92.2729 66.3481 101.165 70.0416 110.441 70.0601C119.718 70.0416 128.61 66.3481 135.17 59.7884C141.729 53.2286 145.423 44.337 145.441 35.0601C145.426 25.7824 141.733 16.8892 135.173 10.3288C128.612 3.76849 119.719 0.0759225 110.441 0.0600586V0.0600586ZM110.441 55.5901C104.877 55.5742 99.5445 53.3567 95.6096 49.4218C91.6748 45.487 89.4572 40.1547 89.4414 34.5901C89.4414 29.0205 91.6539 23.6791 95.5922 19.7408C99.5304 15.8026 104.872 13.5901 110.441 13.5901C116.011 13.5901 121.352 15.8026 125.291 19.7408C129.229 23.6791 131.441 29.0205 131.441 34.5901C131.441 40.1596 129.229 45.501 125.291 49.4393C121.352 53.3776 116.011 55.5901 110.441 55.5901Z" fill="url(#paint2_linear_1016_50713)"/>
<path d="M285.29 0C266.03 0 251.5 15 251.5 34.87C251.5 54.74 266.44 70.14 286.91 70.14C300.26 70.14 310.8 63.89 316.61 52.55L316.79 52.21L305.87 46.61L305.69 46.94C302.08 53.66 295.19 57.51 286.77 57.51C276.19 57.51 267.97 50.99 265.64 41.03H318V33.25C318 13.68 304.55 0 285.29 0ZM265.8 28.86C267.38 18.74 276.07 12.74 285.16 12.74C294.87 12.74 303.16 18.74 303.87 28.84L265.8 28.86Z" fill="url(#paint3_linear_1016_50713)"/>
<path d="M435.969 28.04H419.699C418.075 28.0374 416.519 27.3921 415.37 26.2452C414.222 25.0984 413.574 23.5433 413.569 21.92C413.571 20.2951 414.218 18.7374 415.367 17.5884C416.516 16.4394 418.074 15.7927 419.699 15.79H452.049V1.79004H419.699C414.36 1.79797 409.242 3.92243 405.466 7.69769C401.691 11.473 399.567 16.591 399.559 21.9301C399.567 27.2691 401.691 32.3872 405.466 36.1624C409.242 39.9377 414.36 42.0621 419.699 42.07H435.969C437.591 42.0727 439.146 42.7183 440.293 43.8655C441.44 45.0126 442.086 46.5678 442.089 48.1901C442.089 49.8141 441.444 51.3718 440.297 52.5211C439.149 53.6704 437.593 54.3174 435.969 54.32H401.359V68.32H435.969C441.308 68.3147 446.426 66.1909 450.2 62.4147C453.975 58.6386 456.096 53.519 456.099 48.1801C456.096 42.8411 453.975 37.7215 450.2 33.9454C446.426 30.1693 441.308 28.0453 435.969 28.04V28.04Z" fill="url(#paint4_linear_1016_50713)"/>
<path d="M359.438 0.0698242C349.118 0.0698242 340.738 3.53984 334.858 10.1198C329.318 16.3198 326.398 24.8198 326.398 34.7198V68.3498H340.498V36.0698C340.498 29.8798 342.178 24.2798 345.248 20.3098C346.918 18.1555 349.075 16.4278 351.541 15.2683C354.008 14.1089 356.714 13.5508 359.438 13.6398C362.218 13.556 364.979 14.1174 367.505 15.2798C370.031 16.4423 372.254 18.1743 373.998 20.3398C377.168 24.3398 378.918 29.9698 378.918 36.2098V68.3498H393.018V34.5898C393.018 24.8998 389.958 16.2098 384.388 10.0998C378.438 3.53982 369.808 0.0698242 359.438 0.0698242Z" fill="url(#paint5_linear_1016_50713)"/>
<path d="M256.569 97.3699C257.21 97.174 257.778 96.791 258.199 96.2699C258.629 95.7167 258.852 95.0303 258.829 94.3299C258.84 93.7008 258.659 93.0832 258.309 92.5599C257.948 92.0153 257.433 91.5906 256.829 91.3399C256.095 91.0341 255.304 90.8875 254.509 90.91H249.039V104.17H254.759C255.563 104.191 256.362 104.034 257.099 103.71C257.711 103.449 258.232 103.014 258.599 102.46C258.956 101.899 259.141 101.245 259.129 100.58C259.139 99.8208 258.884 99.0819 258.409 98.4899C257.956 97.9017 257.3 97.5026 256.569 97.3699ZM251.699 93.0499H254.129C254.656 93.0163 255.177 93.1724 255.599 93.4899C255.772 93.6448 255.908 93.8368 255.996 94.0515C256.084 94.2663 256.123 94.4982 256.109 94.7299C256.122 94.9601 256.083 95.1903 255.995 95.4033C255.907 95.6163 255.771 95.8066 255.599 95.9599C255.173 96.2665 254.653 96.415 254.129 96.38H251.699V93.0499ZM255.879 101.55C255.449 101.876 254.917 102.035 254.379 102H251.699V98.4299H254.319C254.877 98.4007 255.425 98.5788 255.859 98.9299C256.05 99.0928 256.201 99.2975 256.3 99.5282C256.399 99.7589 256.443 100.009 256.429 100.26C256.442 100.503 256.399 100.745 256.304 100.969C256.209 101.192 256.063 101.391 255.879 101.55Z" fill="#030A1C"/>
<path d="M267.522 96.9702L264.672 90.9102H261.672L266.172 99.5502V104.17H268.832V99.5502L273.322 90.9102H270.352L267.522 96.9702Z" fill="#030A1C"/>
<path d="M289.941 97.3698C290.585 97.174 291.156 96.7911 291.581 96.2698C292.008 95.7152 292.227 95.029 292.201 94.3298C292.211 93.7022 292.033 93.086 291.691 92.5598C291.33 92.0151 290.815 91.5904 290.211 91.3398C289.477 91.0348 288.686 90.8882 287.891 90.9098H282.441V104.17H288.161C288.944 104.193 289.721 104.046 290.441 103.74C291.053 103.479 291.574 103.044 291.941 102.49C292.306 101.932 292.494 101.276 292.481 100.61C292.492 99.8489 292.233 99.1087 291.751 98.5198C291.31 97.9265 290.666 97.517 289.941 97.3698ZM285.081 93.0498H287.511C288.035 93.0168 288.553 93.1729 288.971 93.4898C289.146 93.6437 289.284 93.8352 289.374 94.05C289.464 94.2648 289.504 94.4972 289.491 94.7298C289.503 94.9608 289.463 95.1915 289.373 95.4045C289.283 95.6176 289.145 95.8074 288.971 95.9598C288.548 96.2648 288.032 96.4133 287.511 96.3798H285.081V93.0498ZM289.261 101.55C288.83 101.872 288.299 102.032 287.761 102H285.081V98.4298H287.701C288.259 98.4005 288.807 98.5786 289.241 98.9298C289.432 99.0926 289.583 99.2973 289.682 99.528C289.781 99.7587 289.825 100.009 289.811 100.26C289.822 100.502 289.778 100.744 289.683 100.967C289.588 101.191 289.444 101.39 289.261 101.55V101.55Z" fill="#030A1C"/>
<path d="M304.151 99.1201C304.175 99.495 304.125 99.871 304.003 100.226C303.881 100.582 303.69 100.909 303.441 101.19C303.173 101.437 302.857 101.626 302.513 101.746C302.169 101.867 301.804 101.916 301.441 101.89C301.077 101.916 300.712 101.867 300.368 101.747C300.024 101.627 299.709 101.437 299.441 101.19C299.193 100.908 299.004 100.58 298.884 100.225C298.764 99.8699 298.715 99.4943 298.741 99.1201V90.9102H296.081V99.1001C296.049 100.103 296.291 101.095 296.781 101.97C297.231 102.723 297.891 103.328 298.681 103.71C299.523 104.114 300.447 104.316 301.381 104.3C302.321 104.317 303.252 104.115 304.101 103.71C304.907 103.333 305.585 102.728 306.051 101.97C306.568 101.104 306.824 100.108 306.791 99.1001V90.9102H304.121L304.151 99.1201Z" fill="#030A1C"/>
<path d="M319.22 91.7401C318.079 91.1803 316.821 90.9025 315.55 90.9301H310.91V104.19H315.55C316.822 104.219 318.082 103.938 319.22 103.37C320.246 102.862 321.098 102.062 321.67 101.07C322.267 100.006 322.568 98.8003 322.54 97.5801C322.568 96.3567 322.267 95.1483 321.67 94.0801C321.103 93.0748 320.25 92.2604 319.22 91.7401V91.7401ZM318.68 100.74C318.248 101.138 317.74 101.443 317.187 101.639C316.633 101.835 316.046 101.917 315.46 101.88H313.57V93.1201H315.44C316.029 93.0823 316.62 93.1677 317.174 93.3709C317.729 93.5741 318.235 93.8905 318.66 94.3001C319.06 94.7331 319.368 95.2425 319.565 95.7976C319.763 96.3527 319.846 96.942 319.81 97.5301C319.85 98.1138 319.77 98.6995 319.575 99.2514C319.381 99.8032 319.077 100.31 318.68 100.74V100.74Z" fill="#030A1C"/>
<path d="M331.491 98.8301H336.051C335.898 99.7086 335.446 100.507 334.771 101.09C334.066 101.643 333.187 101.927 332.291 101.89C331.534 101.906 330.786 101.723 330.121 101.36C329.499 101.003 328.993 100.476 328.661 99.8401C328.299 99.1216 328.12 98.3245 328.141 97.5201C328.123 96.7288 328.302 95.9454 328.661 95.2401C328.975 94.6047 329.469 94.076 330.081 93.7201C330.716 93.3554 331.439 93.1721 332.171 93.1901C332.818 93.1732 333.458 93.3212 334.031 93.6201C334.564 93.919 335.001 94.3629 335.291 94.9001H338.351C337.978 93.6423 337.17 92.5579 336.071 91.8401C334.912 91.0879 333.552 90.7044 332.171 90.7401C330.962 90.7264 329.77 91.0261 328.711 91.6101C327.695 92.1746 326.854 93.0085 326.281 94.0201C325.69 95.0907 325.39 96.2974 325.411 97.5201C325.39 98.7427 325.69 99.9494 326.281 101.02C326.862 102.025 327.701 102.857 328.711 103.43C329.78 104.005 330.978 104.298 332.191 104.28C333.259 104.299 334.316 104.058 335.271 103.58C336.161 103.13 336.935 102.479 337.531 101.68C338.099 100.924 338.489 100.048 338.671 99.1201V96.8001H331.491V98.8301Z" fill="#030A1C"/>
<path d="M342.16 104.17H349.85V102H344.82V98.4901H349.28V96.3801H344.82V93.0601H349.85V90.8901H342.16V104.17Z" fill="#030A1C"/>
<path d="M353.09 93.0602H356.62V104.17H359.28V93.0602H362.81V90.9102H353.09V93.0602Z" fill="#030A1C"/>
<path d="M374.98 90.9102H372.32V104.17H374.98V90.9102Z" fill="#030A1C"/>
<path d="M387.809 100.01L381.789 90.8901H379.129V104.17H381.789V95.0701L387.809 104.17H390.469V90.8901H387.809V100.01Z" fill="#030A1C"/>
<path d="M401.901 97.1998C401.219 96.8909 400.514 96.6368 399.791 96.4398C399.161 96.2498 398.661 96.0798 398.311 95.9398C397.987 95.803 397.689 95.61 397.431 95.3698C397.208 95.128 397.086 94.8092 397.091 94.4798C397.076 94.2643 397.109 94.0482 397.189 93.8474C397.269 93.6466 397.393 93.4663 397.551 93.3198C397.905 93.0374 398.35 92.895 398.801 92.9198C399.318 92.8916 399.828 93.0554 400.231 93.3798C400.406 93.5113 400.55 93.6799 400.652 93.8735C400.754 94.0672 400.812 94.2811 400.821 94.4998H403.741C403.723 93.9607 403.586 93.4322 403.341 92.9518C403.095 92.4714 402.747 92.0508 402.321 91.7198C401.358 91.0158 400.183 90.6628 398.991 90.7198C398.157 90.7059 397.33 90.866 396.561 91.1898C395.894 91.4638 395.321 91.9259 394.911 92.5198C394.514 93.1286 394.308 93.8428 394.321 94.5698C394.29 95.2806 394.49 95.9823 394.891 96.5698C395.26 97.0474 395.736 97.4312 396.281 97.6898C396.964 97.9824 397.666 98.2296 398.381 98.4298C398.887 98.5645 399.384 98.7281 399.871 98.9198C400.214 99.0481 400.524 99.2494 400.781 99.5098C400.905 99.6441 401 99.8018 401.062 99.9735C401.124 100.145 401.151 100.328 401.141 100.51C401.147 100.734 401.103 100.956 401.011 101.16C400.919 101.365 400.783 101.546 400.611 101.69C400.188 102.003 399.668 102.159 399.141 102.13C398.618 102.158 398.103 101.986 397.701 101.65C397.348 101.312 397.144 100.848 397.131 100.36H394.281C394.278 101.116 394.512 101.854 394.951 102.47C395.395 103.077 395.997 103.551 396.691 103.84C397.489 104.16 398.342 104.32 399.201 104.31C400.075 104.336 400.942 104.154 401.731 103.78C402.396 103.456 402.954 102.95 403.341 102.32C403.71 101.718 403.9 101.025 403.891 100.32C403.931 99.605 403.723 98.8983 403.301 98.3198C402.933 97.8379 402.452 97.4534 401.901 97.1998Z" fill="#030A1C"/>
<path d="M410.379 90.9102H407.719V104.17H410.379V90.9102Z" fill="#030A1C"/>
<path d="M419.96 98.8301H424.52C424.371 99.7076 423.922 100.506 423.25 101.09C422.54 101.642 421.659 101.926 420.76 101.89C420.006 101.905 419.262 101.722 418.6 101.36C417.975 101.004 417.466 100.476 417.13 99.8401C416.776 99.119 416.601 98.3232 416.62 97.5201C416.604 96.7302 416.779 95.948 417.13 95.2401C417.447 94.6041 417.945 94.0754 418.56 93.7201C419.195 93.3555 419.918 93.1722 420.65 93.1901C421.297 93.1733 421.937 93.3213 422.51 93.6201C423.042 93.917 423.476 94.3616 423.76 94.9001H426.82C426.446 93.6423 425.639 92.5579 424.54 91.8401C423.385 91.0876 422.028 90.704 420.65 90.7401C419.441 90.7264 418.249 91.0262 417.19 91.6101C416.17 92.1691 415.328 93.0044 414.76 94.0201C414.161 95.0879 413.857 96.296 413.88 97.5201C413.859 98.7441 414.162 99.9518 414.76 101.02C415.336 102.029 416.176 102.863 417.19 103.43C418.259 104.005 419.457 104.298 420.67 104.28C421.735 104.299 422.788 104.058 423.74 103.58C424.633 103.13 425.41 102.48 426.01 101.68C426.578 100.924 426.968 100.048 427.15 99.1201V96.8001H419.96V98.8301Z" fill="#030A1C"/>
<path d="M438.969 96.3602H433.289V90.9102H430.629V104.17H433.289V98.5302H438.969V104.17H441.629V90.9102H438.969V96.3602Z" fill="#030A1C"/>
<path d="M445.07 90.9102V93.0602H448.6V104.17H451.26V93.0602H454.8V90.9102H445.07Z" fill="#030A1C"/>
<defs>
<linearGradient id="paint0_linear_1016_50713" x1="-4.35814" y1="82.34" x2="411.642" y2="-18.66" gradientUnits="userSpaceOnUse">
<stop stop-color="#2844BA"/>
<stop offset="0.49" stop-color="#4E5FFB"/>
<stop offset="1" stop-color="#6B85E0"/>
</linearGradient>
<linearGradient id="paint1_linear_1016_50713" x1="-12.4986" y1="48.7902" x2="403.501" y2="-52.2098" gradientUnits="userSpaceOnUse">
<stop stop-color="#2844BA"/>
<stop offset="0.49" stop-color="#4E5FFB"/>
<stop offset="1" stop-color="#6B85E0"/>
</linearGradient>
<linearGradient id="paint2_linear_1016_50713" x1="-8.7986" y1="64.0301" x2="407.201" y2="-36.9699" gradientUnits="userSpaceOnUse">
<stop stop-color="#2844BA"/>
<stop offset="0.49" stop-color="#4E5FFB"/>
<stop offset="1" stop-color="#6B85E0"/>
</linearGradient>
<linearGradient id="paint3_linear_1016_50713" x1="0.990009" y1="104.34" x2="416.99" y2="3.33996" gradientUnits="userSpaceOnUse">
<stop stop-color="#2844BA"/>
<stop offset="0.49" stop-color="#4E5FFB"/>
<stop offset="1" stop-color="#6B85E0"/>
</linearGradient>
<linearGradient id="paint4_linear_1016_50713" x1="8.85856" y1="136.76" x2="424.859" y2="35.76" gradientUnits="userSpaceOnUse">
<stop stop-color="#2844BA"/>
<stop offset="0.49" stop-color="#4E5FFB"/>
<stop offset="1" stop-color="#6B85E0"/>
</linearGradient>
<linearGradient id="paint5_linear_1016_50713" x1="5.65844" y1="123.59" x2="421.658" y2="22.5898" gradientUnits="userSpaceOnUse">
<stop stop-color="#2844BA"/>
<stop offset="0.49" stop-color="#4E5FFB"/>
<stop offset="1" stop-color="#6B85E0"/>
</linearGradient>
</defs>
</svg>
